<svg xmlns="http://www.w3.org/2000/svg" width="16" height="18" viewBox="0 0 16 18" >
<path d="M0.5 9C0.5 8.7613 0.598772 8.53239 0.774588 8.3636C0.950403 8.19482 1.18886 8.1 1.4375 8.1H8.55312L6.39687 6.039C6.309 5.95533 6.23926 5.85579 6.19166 5.74612C6.14407 5.63645 6.11956 5.51881 6.11956 5.4C6.11956 5.28119 6.14407 5.16355 6.19166 5.05388C6.23926 4.94421 6.309 4.84467 6.39687 4.761C6.48403 4.67664 6.58772 4.60969 6.70196 4.564C6.8162 4.5183 6.93874 4.49478 7.0625 4.49478C7.18626 4.49478 7.3088 4.5183 7.42304 4.564C7.53728 4.60969 7.64097 4.67664 7.72812 4.761L11.4781 8.361C11.5635 8.44659 11.6304 8.54752 11.675 8.658C11.7688 8.87712 11.7688 9.12288 11.675 9.342C11.6304 9.45248 11.5635 9.55341 11.4781 9.639L7.72812 13.239C7.64071 13.3229 7.53694 13.3895 7.42273 13.4349C7.30853 13.4803 7.18612 13.5037 7.0625 13.5037C6.93888 13.5037 6.81647 13.4803 6.70227 13.4349C6.58806 13.3895 6.48429 13.3229 6.39687 13.239C6.30946 13.1551 6.24013 13.0555 6.19282 12.9458C6.14551 12.8362 6.12116 12.7187 6.12116 12.6C6.12116 12.4813 6.14551 12.3638 6.19282 12.2542C6.24013 12.1445 6.30946 12.0449 6.39687 11.961L8.55312 9.9H1.4375C1.18886 9.9 0.950403 9.80518 0.774588 9.6364C0.598772 9.46761 0.5 9.2387 0.5 9ZM12.6875 18H3.3125C2.56658 18 1.85121 17.7155 1.32376 17.2092C0.796316 16.7028 0.5 16.0161 0.5 15.3V12.6C0.5 12.3613 0.598772 12.1324 0.774588 11.9636C0.950403 11.7948 1.18886 11.7 1.4375 11.7C1.68614 11.7 1.9246 11.7948 2.10041 11.9636C2.27623 12.1324 2.375 12.3613 2.375 12.6V15.3C2.375 15.5387 2.47377 15.7676 2.64959 15.9364C2.8254 16.1052 3.06386 16.2 3.3125 16.2H12.6875C12.9361 16.2 13.1746 16.1052 13.3504 15.9364C13.5262 15.7676 13.625 15.5387 13.625 15.3V2.7C13.625 2.4613 13.5262 2.23238 13.3504 2.0636C13.1746 1.89482 12.9361 1.8 12.6875 1.8H3.3125C3.06386 1.8 2.8254 1.89482 2.64959 2.0636C2.47377 2.23238 2.375 2.4613 2.375 2.7V5.4C2.375 5.63869 2.27623 5.86761 2.10041 6.0364C1.9246 6.20518 1.68614 6.3 1.4375 6.3C1.18886 6.3 0.950403 6.20518 0.774588 6.0364C0.598772 5.86761 0.5 5.63869 0.5 5.4V2.7C0.5 1.98392 0.796316 1.29716 1.32376 0.790812C1.85121 0.284464 2.56658 0 3.3125 0H12.6875C13.4334 0 14.1488 0.284464 14.6762 0.790812C15.2037 1.29716 15.5 1.98392 15.5 2.7V15.3C15.5 16.0161 15.2037 16.7028 14.6762 17.2092C14.1488 17.7155 13.4334 18 12.6875 18Z" />
</svg>
